<svg id="_Слой_1" data-name="Слой 1" xmlns="http://www.w3.org/2000/svg" viewBox="0 0 394 394">
  <defs>
    <style>
      .cls-1 {
      fill: #fff;
      width: 100%;
      height: 100%;
      overflow: visible;
      }
    </style>
  </defs>
  <path class="cls-1" d="M292.9,116.97c-.76-2.2-1.65-2.8-3.06-3.33-3.07-1.16-8.27,.59-8.27,.59,0,0-184.12,66.18-194.63,73.51-2.27,1.58-3.02,2.49-3.4,3.57-1.82,5.22,3.85,7.52,3.85,7.52l47.45,15.46s1.77,.26,2.4-.14c10.8-6.82,108.61-68.59,114.26-70.67,.89-.27,1.55,.04,1.37,.65-2.26,7.92-87.22,83.44-87.22,83.44,0,0-.33,.4-.53,.88l-.11-.07-4.43,47.07s-1.85,14.42,12.57,0c10.17-10.17,20.02-18.69,24.94-22.83,16.32,11.27,33.88,23.73,41.46,30.25,3.81,3.27,6.99,3.81,9.61,3.71,7.19-.27,9.2-8.17,9.2-8.17,0,0,33.55-135.03,34.67-153.13,.11-1.77,.26-2.9,.27-4.12,.02-1.69-.14-3.39-.41-4.19Z"/>
</svg>
